<svg width="14" height="10" viewBox="0 0 14 10" fill="none" xmlns="http://www.w3.org/2000/svg">
<g id="Group">
<g id="Group_2">
<path id="Vector" d="M6.95562 6.23271C6.82339 6.23271 6.69997 6.20627 6.55891 6.16219C6.43549 6.11811 6.29444 6.0564 6.15339 5.96824C6.01234 5.8889 5.89774 5.81837 5.80076 5.74785C5.70379 5.68614 5.58919 5.59798 5.43932 5.50101L5.16603 5.29825C4.76051 5.01614 4.18749 4.61944 3.43815 4.09049C2.68881 3.57037 2.23921 3.26182 2.08935 3.15603C1.79843 2.96208 1.52514 2.69761 1.2783 2.3538C1.01383 2.00998 0.881592 1.67499 0.881592 1.35762C0.881592 0.978545 0.98738 0.661179 1.19014 0.396707C1.40172 0.132236 1.71027 0 2.09816 0H11.8043C12.1304 0 12.4214 0.12342 12.6594 0.352629C12.8974 0.590653 13.0208 0.881572 13.0208 1.21657C13.0208 1.59565 12.9062 1.95709 12.6682 2.3009C12.439 2.6359 12.1569 2.918 11.8219 3.15603L8.7364 5.29825C8.69232 5.32469 8.60416 5.39522 8.46311 5.50101C8.32206 5.6068 8.19864 5.68614 8.10166 5.75666C8.00469 5.81837 7.88127 5.8889 7.74904 5.96824C7.60798 6.0564 7.46693 6.11811 7.3347 6.16219C7.20246 6.20627 7.07904 6.23271 6.95562 6.23271ZM2.09816 0.326182C1.80724 0.326182 1.59566 0.414339 1.4458 0.608285C1.2783 0.80223 1.20777 1.05789 1.20777 1.35762C1.20777 1.59565 1.32238 1.86893 1.53395 2.15985C1.76316 2.4684 2.01 2.71524 2.26566 2.89156C2.41553 2.99734 2.86513 3.30589 3.62328 3.82602C4.37262 4.34615 4.95445 4.75167 5.35116 5.03378L5.63326 5.23654C5.77431 5.34233 5.88892 5.42167 5.98589 5.48338C6.07405 5.54509 6.18865 5.61561 6.32089 5.69495C6.43549 5.76548 6.55891 5.81837 6.6647 5.85364C6.8851 5.92416 7.05259 5.91535 7.23772 5.85364C7.34351 5.81837 7.46693 5.76548 7.59035 5.68614C7.72259 5.6068 7.82838 5.53627 7.92535 5.47456C8.02232 5.41285 8.13693 5.32469 8.27798 5.22772C8.41021 5.13075 8.50719 5.06022 8.55127 5.03378L11.6368 2.89156C11.9365 2.67998 12.201 2.42432 12.3949 2.12459C12.5889 1.83367 12.6947 1.53394 12.6947 1.21657C12.6947 0.969729 12.6065 0.766968 12.4302 0.581837C12.2539 0.405523 12.0423 0.317366 11.8043 0.317366H2.09816V0.326182Z" fill="white"/>
</g>
<g id="Group_3">
<path id="Vector_2" d="M11.8043 9.60913H2.09816C1.76316 9.60913 1.47224 9.48571 1.24304 9.24769C1.00501 9.00966 0.881592 8.71874 0.881592 8.39256V2.73287L1.16369 3.04142C1.34882 3.253 1.5604 3.43813 1.79843 3.59681C3.37644 4.67233 4.4784 5.4393 5.07787 5.88008C5.32471 6.06521 5.52747 6.20626 5.67734 6.30324C5.82721 6.40021 6.02116 6.49718 6.27681 6.60297C6.77049 6.80573 7.15838 6.79692 7.6168 6.60297C7.86364 6.49718 8.0664 6.40021 8.21627 6.30324C8.36614 6.19745 8.5689 6.0564 8.81574 5.87127C9.55626 5.33351 10.6318 4.59299 12.104 3.59681C12.342 3.43813 12.5536 3.253 12.7387 3.05024L13.0208 2.74169V8.39256C13.0208 8.72756 12.8974 9.01848 12.6594 9.24769C12.4214 9.48571 12.1304 9.60913 11.8043 9.60913ZM1.20777 3.54392V8.39256C1.20777 8.6394 1.29593 8.85098 1.47224 9.02729C1.64856 9.20361 1.85132 9.29177 2.10698 9.29177H11.8131C12.0599 9.29177 12.2627 9.20361 12.4478 9.02729C12.6241 8.85098 12.7123 8.64822 12.7123 8.39256V3.54392C12.5889 3.65852 12.4478 3.76431 12.3068 3.86128C10.8345 4.85746 9.75902 5.59798 9.02732 6.13574C8.75403 6.32087 8.55127 6.46192 8.39258 6.56771C8.22509 6.68231 8.01351 6.7881 7.74022 6.90271C7.17601 7.14073 6.69115 7.13192 6.15339 6.90271C5.8801 6.7881 5.66853 6.68231 5.50984 6.56771C5.35116 6.46192 5.1484 6.32087 4.89274 6.12692C4.29327 5.68614 3.20013 4.92799 1.62211 3.85247C1.47224 3.76431 1.33119 3.65852 1.20777 3.54392Z" fill="white"/>
</g>
</g>
</svg>
