<svg width="14" height="84" viewBox="0 0 14 84" fill="none" xmlns="http://www.w3.org/2000/svg">
<path d="M6.95562 6.23271C6.82339 6.23271 6.69997 6.20627 6.55891 6.16219C6.43549 6.11811 6.29444 6.0564 6.15339 5.96824C6.01234 5.8889 5.89774 5.81837 5.80076 5.74785C5.70379 5.68614 5.58919 5.59798 5.43932 5.50101L5.16603 5.29825C4.76051 5.01614 4.18749 4.61944 3.43815 4.09049C2.68881 3.57037 2.23921 3.26182 2.08935 3.15603C1.79843 2.96208 1.52514 2.69761 1.2783 2.3538C1.01383 2.00998 0.881592 1.67499 0.881592 1.35762C0.881592 0.978545 0.98738 0.661179 1.19014 0.396707C1.40172 0.132236 1.71027 0 2.09816 0H11.8043C12.1304 0 12.4214 0.12342 12.6594 0.352629C12.8974 0.590653 13.0208 0.881572 13.0208 1.21657C13.0208 1.59565 12.9062 1.95709 12.6682 2.3009C12.439 2.6359 12.1569 2.918 11.8219 3.15603L8.7364 5.29825C8.69232 5.32469 8.60416 5.39522 8.46311 5.50101C8.32206 5.6068 8.19864 5.68614 8.10166 5.75666C8.00469 5.81837 7.88127 5.8889 7.74904 5.96824C7.60798 6.0564 7.46693 6.11811 7.3347 6.16219C7.20246 6.20627 7.07904 6.23271 6.95562 6.23271ZM2.09816 0.326182C1.80724 0.326182 1.59566 0.414339 1.4458 0.608285C1.2783 0.80223 1.20777 1.05789 1.20777 1.35762C1.20777 1.59565 1.32238 1.86893 1.53395 2.15985C1.76316 2.4684 2.01 2.71524 2.26566 2.89156C2.41553 2.99734 2.86513 3.30589 3.62328 3.82602C4.37262 4.34615 4.95445 4.75167 5.35116 5.03378L5.63326 5.23654C5.77431 5.34233 5.88892 5.42167 5.98589 5.48338C6.07405 5.54509 6.18865 5.61561 6.32089 5.69495C6.43549 5.76548 6.55891 5.81837 6.6647 5.85364C6.8851 5.92416 7.05259 5.91535 7.23772 5.85364C7.34351 5.81837 7.46693 5.76548 7.59035 5.68614C7.72259 5.6068 7.82838 5.53627 7.92535 5.47456C8.02232 5.41285 8.13693 5.32469 8.27798 5.22772C8.41022 5.13075 8.50719 5.06022 8.55127 5.03378L11.6368 2.89156C11.9365 2.67998 12.201 2.42432 12.3949 2.12459C12.5889 1.83367 12.6947 1.53394 12.6947 1.21657C12.6947 0.969729 12.6065 0.766968 12.4302 0.581837C12.2539 0.405523 12.0423 0.317366 11.8043 0.317366H2.09816V0.326182Z" fill="white"/>
<path d="M11.8043 9.60913H2.09816C1.76316 9.60913 1.47224 9.48571 1.24304 9.24769C1.00501 9.00966 0.881592 8.71874 0.881592 8.39256V2.73287L1.16369 3.04142C1.34882 3.253 1.5604 3.43813 1.79843 3.59681C3.37644 4.67233 4.4784 5.4393 5.07787 5.88008C5.32471 6.06521 5.52748 6.20626 5.67734 6.30324C5.82721 6.40021 6.02116 6.49718 6.27681 6.60297C6.77049 6.80573 7.15838 6.79692 7.6168 6.60297C7.86364 6.49718 8.0664 6.40021 8.21627 6.30324C8.36614 6.19745 8.5689 6.0564 8.81574 5.87127C9.55626 5.33351 10.6318 4.59299 12.104 3.59681C12.342 3.43813 12.5536 3.253 12.7387 3.05024L13.0208 2.74169V8.39256C13.0208 8.72756 12.8974 9.01848 12.6594 9.24769C12.4214 9.48571 12.1304 9.60913 11.8043 9.60913ZM1.20777 3.54392V8.39256C1.20777 8.6394 1.29593 8.85098 1.47224 9.02729C1.64856 9.20361 1.85132 9.29177 2.10698 9.29177H11.8131C12.0599 9.29177 12.2627 9.20361 12.4478 9.02729C12.6241 8.85098 12.7123 8.64822 12.7123 8.39256V3.54392C12.5889 3.65852 12.4478 3.76431 12.3068 3.86128C10.8345 4.85746 9.75902 5.59798 9.02731 6.13574C8.75403 6.32087 8.55127 6.46192 8.39258 6.56771C8.22509 6.68231 8.01351 6.7881 7.74022 6.90271C7.17601 7.14073 6.69115 7.13192 6.15339 6.90271C5.8801 6.7881 5.66853 6.68231 5.50984 6.56771C5.35116 6.46192 5.1484 6.32087 4.89274 6.12692C4.29327 5.68614 3.20013 4.92799 1.62211 3.85247C1.47224 3.76431 1.33119 3.65852 1.20777 3.54392Z" fill="white"/>
<path d="M9.54248 33.1019C8.81959 33.1019 7.96447 32.8992 7.16224 32.5113C6.49225 32.1851 5.88396 31.7443 5.42554 31.4005C4.93186 31.0302 4.43818 30.5894 3.90924 30.0693C3.41556 29.5668 2.96596 29.0555 2.58688 28.553C2.24307 28.1034 1.80228 27.4951 1.4761 26.8075C0.726765 25.2824 0.682687 23.5986 1.3615 22.8933L1.4761 22.7787L4.42055 25.7232L4.37647 25.8201C4.22661 26.2257 4.29713 26.6753 4.5616 26.9662C4.8966 27.3541 5.26686 27.7596 5.74291 28.2357C6.1837 28.6764 6.58922 29.0555 7.00356 29.417C7.30329 29.6726 7.75289 29.7431 8.15842 29.5933L8.25539 29.558L11.1998 32.5025L11.0764 32.6171C10.7414 32.9432 10.1948 33.1019 9.54248 33.1019ZM1.48492 23.246C1.01768 23.9159 1.12347 25.3705 1.7582 26.6665C2.07557 27.3188 2.49872 27.9095 2.83372 28.3503C3.22161 28.8528 3.65358 29.3464 4.13845 29.8401C4.65858 30.3514 5.13462 30.7834 5.61949 31.1448C6.08672 31.4975 6.65974 31.9118 7.30329 32.2204C8.60802 32.8551 10.0538 32.9609 10.7238 32.4936L8.15842 29.9371C7.68237 30.0693 7.15342 29.9723 6.79198 29.6638C6.36883 29.3024 5.95449 28.9056 5.5137 28.4649C5.02884 27.98 4.64976 27.5745 4.31476 27.1778C3.9974 26.8251 3.90042 26.2962 4.04148 25.8113L1.48492 23.246ZM11.4908 32.2027L8.55512 29.2583L8.72262 29.1525C8.77552 29.1172 8.81959 29.082 8.86367 29.0379L9.75406 28.1475C9.97445 27.9271 10.3447 27.9271 10.5651 28.1475L12.6544 30.2368C12.7602 30.3426 12.8219 30.4837 12.8219 30.6423C12.8219 30.801 12.7602 30.9421 12.6544 31.0479L11.4908 32.2027ZM9.0488 29.3024L11.4908 31.7443L12.4164 30.8187C12.4693 30.7746 12.4957 30.7041 12.4957 30.6423C12.4957 30.5806 12.4693 30.5189 12.4252 30.466L10.3359 28.3767C10.2389 28.2797 10.0802 28.2797 9.97445 28.3767L9.09288 29.2583C9.07525 29.2759 9.06644 29.2847 9.0488 29.3024ZM4.71147 25.4146L1.77584 22.479L2.30478 21.95C2.51636 21.7385 2.71912 21.5357 2.93069 21.3241C3.15109 21.1037 3.51253 21.1037 3.73293 21.3153L5.83107 23.4135C5.93685 23.5192 5.99857 23.6691 5.99857 23.819C5.99857 23.9688 5.93686 24.1187 5.82225 24.2245L4.94068 25.1061C4.8966 25.1502 4.85252 25.203 4.81726 25.2559L4.71147 25.4146ZM2.23425 22.479L4.67621 24.9209C4.68502 24.9033 4.70265 24.8945 4.71147 24.8857L5.59304 24.0041C5.64594 23.9512 5.67238 23.8895 5.67238 23.8278C5.67238 23.7573 5.64594 23.6956 5.60186 23.6515L3.50372 21.5445C3.40674 21.4564 3.24806 21.4564 3.15109 21.5445C2.94833 21.7561 2.73675 21.9677 2.53399 22.1793L2.23425 22.479Z" fill="white"/>
<path d="M6.98203 58.3777C6.80571 58.3777 6.63821 58.3072 6.52361 58.1749C6.32966 57.9546 1.76312 52.8238 1.76312 49.3063C1.76312 46.4236 4.1081 44.0786 6.98203 44.0786C9.86477 44.0786 12.2009 46.4236 12.2009 49.3063C12.2009 52.8326 7.63439 57.9634 7.44045 58.1749C7.32584 58.3072 7.15834 58.3777 6.98203 58.3777ZM6.98203 44.4048C4.2756 44.4048 2.08049 46.5999 2.08049 49.3063C2.08049 52.7092 6.56769 57.7518 6.76163 57.9634C6.87624 58.0868 7.08782 58.0868 7.20242 57.9634C7.39637 57.7518 11.8836 52.7092 11.8836 49.3063C11.8836 46.5999 9.68845 44.4048 6.98203 44.4048ZM6.98203 52.0128C5.49217 52.0128 4.2756 50.7962 4.2756 49.3063C4.2756 47.8165 5.49217 46.5999 6.98203 46.5999C8.4807 46.5911 9.69727 47.8077 9.69727 49.3063C9.69727 50.7962 8.4807 52.0128 6.98203 52.0128ZM6.98203 46.9173C5.66849 46.9173 4.59297 47.984 4.59297 49.3063C4.59297 50.6199 5.65967 51.6954 6.98203 51.6954C8.29557 51.6954 9.37109 50.6287 9.37109 49.3063C9.37109 47.984 8.30439 46.9173 6.98203 46.9173Z" fill="white"/>
<path d="M6.68231 83.3558C2.99734 83.3558 0 80.3585 0 76.6823C0 72.9973 2.99734 70 6.68231 70C10.3673 70 13.3646 72.9973 13.3646 76.6823C13.3558 80.3585 10.3585 83.3558 6.68231 83.3558ZM6.68231 70.3262C3.17366 70.3262 0.326182 73.1737 0.326182 76.6823C0.326182 80.191 3.17366 83.0384 6.68231 83.0384C10.191 83.0384 13.0384 80.191 13.0384 76.6823C13.0384 73.1737 10.1822 70.3262 6.68231 70.3262Z" fill="white"/>
<path d="M6.68231 83.3558C4.76048 83.3558 3.31471 80.4819 3.31471 76.6735C3.30589 72.8739 4.76048 70 6.68231 70C8.60414 70 10.0499 72.8739 10.0499 76.6823C10.0499 80.4907 8.60414 83.3558 6.68231 83.3558ZM6.68231 70.3262C4.94561 70.3262 3.63207 73.0591 3.63207 76.6823C3.63207 80.3056 4.94561 83.0384 6.68231 83.0384C8.41901 83.0384 9.73255 80.3056 9.73255 76.6823C9.73255 73.0591 8.41901 70.3262 6.68231 70.3262Z" fill="white"/>
<path d="M13.1971 76.6735H0.167511V76.9997H13.1971V76.6735Z" fill="white"/>
<path d="M12.58 79.283H0.775787V79.6091H12.58V79.283Z" fill="white"/>
<path d="M12.58 73.7467H0.775787V74.0729H12.58V73.7467Z" fill="white"/>
</svg>
