<svg width="6" height="162" viewBox="0 0 6 162" fill="none" xmlns="http://www.w3.org/2000/svg">
<path d="M3 2V161.16" stroke="#B2B5C0" stroke-width="0.524" stroke-miterlimit="10"/>
<path d="M2.52 5.03C1.13 5.03 0 3.9 0 2.52C0 1.13 1.13 0 2.52 0C3.9 0 5.03 1.13 5.03 2.52C5.03 3.9 3.9 5.03 2.52 5.03Z" fill="#B2B5C0"/>
<path d="M2.52 62.61C1.13 62.61 0 61.48 0 60.09C0 58.7 1.13 57.57 2.52 57.57C3.91 57.57 5.04 58.7 5.04 60.09C5.03 61.48 3.9 62.61 2.52 62.61Z" fill="#B2B5C0"/>
<path d="M2.52 120.18C1.13 120.18 0 119.05 0 117.66C0 116.27 1.13 115.14 2.52 115.14C3.91 115.14 5.04 116.27 5.04 117.66C5.03 119.05 3.9 120.18 2.52 120.18Z" fill="#B2B5C0"/>
</svg>
