<svg width="6" height="163" viewBox="0 0 6 163" fill="none" xmlns="http://www.w3.org/2000/svg">
<path d="M3 3V162.16" stroke="#B2B5C0" stroke-width="0.524" stroke-miterlimit="10"/>
<path d="M2.52 5.89C1.13 5.89 0 4.76 0 3.37C0 1.98 1.13 0.850006 2.52 0.850006C3.91 0.850006 5.04 1.98 5.04 3.37C5.04 4.76 3.9 5.89 2.52 5.89Z" fill="#B2B5C0"/>
<path d="M2.52 60.89C1.13 60.89 0 59.76 0 58.37C0 56.98 1.13 55.85 2.52 55.85C3.91 55.85 5.04 56.98 5.04 58.37C5.04 59.76 3.9 60.89 2.52 60.89Z" fill="#B2B5C0"/>
<path d="M2.52 115.9C1.13 115.9 0 114.77 0 113.38C0 111.99 1.13 110.86 2.52 110.86C3.91 110.86 5.04 111.99 5.04 113.38C5.03 114.77 3.9 115.9 2.52 115.9Z" fill="#B2B5C0"/>
</svg>
