<svg width="14" height="14" viewBox="0 0 14 14" fill="none" xmlns="http://www.w3.org/2000/svg">
<g id="Group">
<g id="Group_2">
<g id="Group_3">
<path id="Vector" d="M6.68231 13.3558C2.99734 13.3558 0 10.3585 0 6.68231C0 2.99734 2.99734 0 6.68231 0C10.3673 0 13.3646 2.99734 13.3646 6.68231C13.3558 10.3585 10.3585 13.3558 6.68231 13.3558ZM6.68231 0.326182C3.17366 0.326182 0.326182 3.17366 0.326182 6.68231C0.326182 10.191 3.17366 13.0384 6.68231 13.0384C10.191 13.0384 13.0384 10.191 13.0384 6.68231C13.0384 3.17366 10.1822 0.326182 6.68231 0.326182Z" fill="white"/>
</g>
</g>
<g id="Group_4">
<g id="Group_5">
<path id="Vector_2" d="M6.68231 13.3558C4.76048 13.3558 3.31471 10.4819 3.31471 6.6735C3.30589 2.87392 4.76048 0 6.68231 0C8.60414 0 10.0499 2.87392 10.0499 6.68231C10.0499 10.4907 8.60414 13.3558 6.68231 13.3558ZM6.68231 0.326182C4.94561 0.326182 3.63207 3.05905 3.63207 6.68231C3.63207 10.3056 4.94561 13.0384 6.68231 13.0384C8.41901 13.0384 9.73255 10.3056 9.73255 6.68231C9.73255 3.05905 8.41901 0.326182 6.68231 0.326182Z" fill="white"/>
</g>
</g>
<g id="Group_6">
<g id="Group_7">
<path id="Vector_3" d="M13.1971 6.6735H0.167511V6.99968H13.1971V6.6735Z" fill="white"/>
</g>
<g id="Group_8">
<path id="Vector_4" d="M12.58 9.28295H0.775787V9.60913H12.58V9.28295Z" fill="white"/>
</g>
<g id="Group_9">
<path id="Vector_5" d="M12.58 3.74668H0.775787V4.07286H12.58V3.74668Z" fill="white"/>
</g>
</g>
</g>
</svg>
