<svg width="12" height="15" viewBox="0 0 12 15" fill="none" xmlns="http://www.w3.org/2000/svg">
<g id="Group">
<path id="Vector" d="M5.98203 14.3777C5.80571 14.3777 5.63822 14.3072 5.52361 14.1749C5.32966 13.9546 0.763123 8.82381 0.763123 5.30633C0.763123 2.42359 3.1081 0.0786133 5.98203 0.0786133C8.86477 0.0786133 11.2009 2.42359 11.2009 5.30633C11.2009 8.83262 6.63439 13.9634 6.44045 14.1749C6.32584 14.3072 6.15834 14.3777 5.98203 14.3777ZM5.98203 0.404795C3.2756 0.404795 1.08049 2.59991 1.08049 5.30633C1.08049 8.7092 5.56769 13.7518 5.76163 13.9634C5.87624 14.0868 6.08782 14.0868 6.20242 13.9634C6.39637 13.7518 10.8836 8.7092 10.8836 5.30633C10.8836 2.59991 8.68845 0.404795 5.98203 0.404795ZM5.98203 8.01276C4.49217 8.01276 3.2756 6.79619 3.2756 5.30633C3.2756 3.81648 4.49217 2.59991 5.98203 2.59991C7.4807 2.59109 8.69727 3.80766 8.69727 5.30633C8.69727 6.79619 7.4807 8.01276 5.98203 8.01276ZM5.98203 2.91727C4.66849 2.91727 3.59297 3.98398 3.59297 5.30633C3.59297 6.61988 4.65967 7.69539 5.98203 7.69539C7.29557 7.69539 8.37109 6.62869 8.37109 5.30633C8.37109 3.98398 7.30439 2.91727 5.98203 2.91727Z" fill="white"/>
</g>
</svg>
