<svg width="13" height="13" viewBox="0 0 13 13" fill="none" xmlns="http://www.w3.org/2000/svg">
<g id="Group">
<g id="Group_2">
<path id="Vector" d="M9.54248 12.1019C8.81959 12.1019 7.96447 11.8992 7.16224 11.5113C6.49225 11.1851 5.88396 10.7443 5.42554 10.4005C4.93186 10.0302 4.43818 9.58945 3.90924 9.06932C3.41556 8.56682 2.96596 8.05551 2.58688 7.55302C2.24307 7.10342 1.80228 6.49513 1.4761 5.80751C0.726765 4.28239 0.682687 2.59858 1.3615 1.89333L1.4761 1.77872L4.42055 4.72317L4.37647 4.82014C4.22661 5.22567 4.29713 5.67527 4.5616 5.96619C4.8966 6.35408 5.26686 6.7596 5.74291 7.23565C6.1837 7.67644 6.58922 8.05551 7.00356 8.41696C7.30329 8.67261 7.75289 8.74314 8.15842 8.59327L8.25539 8.55801L11.1998 11.5025L11.0764 11.6171C10.7414 11.9432 10.1948 12.1019 9.54248 12.1019ZM1.48492 2.24595C1.01768 2.91595 1.12347 4.37054 1.7582 5.66645C2.07557 6.31882 2.49872 6.90947 2.83372 7.35026C3.22161 7.85275 3.65358 8.34643 4.13845 8.84011C4.65858 9.35142 5.13462 9.78339 5.61949 10.1448C6.08672 10.4975 6.65974 10.9118 7.30329 11.2204C8.60802 11.8551 10.0538 11.9609 10.7238 11.4936L8.15842 8.93709C7.68237 9.06932 7.15342 8.97235 6.79198 8.6638C6.36883 8.30235 5.95449 7.90565 5.5137 7.46486C5.02884 6.98 4.64976 6.57447 4.31476 6.17777C3.9974 5.82514 3.90042 5.29619 4.04148 4.81133L1.48492 2.24595ZM11.4908 11.2027L8.55512 8.25827L8.72262 8.15249C8.77552 8.11722 8.81959 8.08196 8.86367 8.03788L9.75406 7.14749C9.97445 6.9271 10.3447 6.9271 10.5651 7.14749L12.6544 9.23682C12.7602 9.34261 12.8219 9.48366 12.8219 9.64234C12.8219 9.80103 12.7602 9.94208 12.6544 10.0479L11.4908 11.2027ZM9.0488 8.30235L11.4908 10.7443L12.4164 9.81866C12.4693 9.77458 12.4957 9.70405 12.4957 9.64234C12.4957 9.58063 12.4693 9.51892 12.4252 9.46603L10.3359 7.3767C10.2389 7.27973 10.0802 7.27973 9.97445 7.3767L9.09288 8.25827C9.07525 8.27591 9.06643 8.28472 9.0488 8.30235ZM4.71147 4.41462L1.77584 1.47899L2.30478 0.950044C2.51636 0.738467 2.71912 0.535706 2.93069 0.324128C3.15109 0.103735 3.51253 0.103735 3.73293 0.315313L5.83107 2.41345C5.93685 2.51924 5.99857 2.66911 5.99857 2.81898C5.99857 2.96884 5.93686 3.11871 5.82225 3.2245L4.94068 4.10607C4.8966 4.15015 4.85252 4.20304 4.81726 4.25594L4.71147 4.41462ZM2.23425 1.47899L4.67621 3.92094C4.68502 3.90331 4.70265 3.89449 4.71147 3.88568L5.59304 3.00411C5.64594 2.95121 5.67238 2.8895 5.67238 2.82779C5.67238 2.75727 5.64594 2.69556 5.60186 2.65148L3.50372 0.544521C3.40674 0.456364 3.24806 0.456364 3.15109 0.544521C2.94833 0.756099 2.73675 0.967676 2.53399 1.17925L2.23425 1.47899Z" fill="white"/>
</g>
</g>
</svg>
